# xmcd CD database file
#
# Track frame offsets:
#	150
#	25429
#	59656
#	76878
#	90181
#	98410
#	116606
#	154255
#
# Disc length: 3103 seconds
#
# Revision: 0
# Processed by: cddbd v1.5.2PL0 Copyright (c) Steve Scherf et al.
# Submitted via: CDex 1.51
#
DISCID=560c1d08
DTITLE=Sanseverino - Sanseverino aux Bouffes du Nord [CD2]
DYEAR=2008
DGENRE=Jazz
TTITLE0=A boy named Sue
TTITLE1=La véritable histoire de la musique country
TTITLE2=Dispute chez des amis
TTITLE3=La valse à Peggy
TTITLE4=Le tango des gens (instrumental)
TTITLE5=Les emboutillages
TTITLE6=Les faux talbins
TTITLE7=DATA
EXTD=YEAR: 2008
EXTT0=
EXTT1=
EXTT2=
EXTT3=
EXTT4=
EXTT5=
EXTT6=
EXTT7=
PLAYORDER=
